<mxfile host="app.diagrams.net" agent="Mozilla/5.0 (Windows NT 10.0; Win64; x64) AppleWebKit/537.36 (KHTML, like Gecko) Chrome/131.0.0.0 Safari/537.36" version="25.0.3">
  <diagram name="Side-1" id="hdxQo8Jqn1nz_EdPwAAx">
    <mxGraphModel dx="2268" dy="1449" grid="1" gridSize="10" guides="1" tooltips="1" connect="1" arrows="1" fold="1" page="0" pageScale="1" pageWidth="827" pageHeight="1169" math="0" shadow="0">
      <root>
        <mxCell id="0" />
        <mxCell id="1" parent="0" />
        <mxCell id="HqMO7V_3ogWAPgEUdEhm-4" value="" style="rounded=0;whiteSpace=wrap;html=1;" vertex="1" parent="1">
          <mxGeometry x="-40" y="120" width="920" height="480" as="geometry" />
        </mxCell>
        <mxCell id="HqMO7V_3ogWAPgEUdEhm-5" value="" style="rounded=0;whiteSpace=wrap;html=1;" vertex="1" parent="1">
          <mxGeometry x="-20" y="140" width="880" height="440" as="geometry" />
        </mxCell>
        <mxCell id="HqMO7V_3ogWAPgEUdEhm-6" value="" style="rounded=0;whiteSpace=wrap;html=1;" vertex="1" parent="1">
          <mxGeometry y="160" width="840" height="400" as="geometry" />
        </mxCell>
        <mxCell id="HqMO7V_3ogWAPgEUdEhm-7" value="5V" style="text;html=1;align=center;verticalAlign=middle;whiteSpace=wrap;rounded=0;" vertex="1" parent="1">
          <mxGeometry x="360" y="100" width="60" height="30" as="geometry" />
        </mxCell>
        <mxCell id="HqMO7V_3ogWAPgEUdEhm-8" value="3V" style="text;html=1;align=center;verticalAlign=middle;whiteSpace=wrap;rounded=0;" vertex="1" parent="1">
          <mxGeometry x="400" y="120" width="60" height="30" as="geometry" />
        </mxCell>
        <mxCell id="HqMO7V_3ogWAPgEUdEhm-9" value="GND" style="text;html=1;align=center;verticalAlign=middle;whiteSpace=wrap;rounded=0;" vertex="1" parent="1">
          <mxGeometry x="460" y="140" width="60" height="30" as="geometry" />
        </mxCell>
        <mxCell id="HqMO7V_3ogWAPgEUdEhm-11" value="&lt;div&gt;&lt;br&gt;&lt;/div&gt;&lt;div&gt;&lt;br&gt;&lt;/div&gt;MPU6050&lt;div&gt;&lt;br&gt;&lt;div&gt;3V GND&lt;/div&gt;&lt;div&gt;SCL SDA&lt;/div&gt;&lt;/div&gt;" style="whiteSpace=wrap;html=1;aspect=fixed;fillColor=#ffe6cc;strokeColor=#d79b00;" vertex="1" parent="1">
          <mxGeometry x="243.75" y="180" width="80" height="80" as="geometry" />
        </mxCell>
        <mxCell id="HqMO7V_3ogWAPgEUdEhm-12" value="&lt;div&gt;&lt;span style=&quot;background-color: initial;&quot;&gt;Vin- Vin+&lt;/span&gt;&lt;/div&gt;&lt;div&gt;&lt;span style=&quot;background-color: initial;&quot;&gt;&lt;br&gt;&lt;/span&gt;&lt;/div&gt;INA219&lt;div&gt;&lt;br&gt;&lt;/div&gt;&lt;div&gt;3V GND&lt;/div&gt;&lt;div&gt;SCL SDA&lt;/div&gt;" style="whiteSpace=wrap;html=1;aspect=fixed;fillColor=#ffe6cc;strokeColor=#d79b00;" vertex="1" parent="1">
          <mxGeometry x="10" y="180" width="80" height="80" as="geometry" />
        </mxCell>
        <mxCell id="HqMO7V_3ogWAPgEUdEhm-13" value="" style="ellipse;whiteSpace=wrap;html=1;aspect=fixed;" vertex="1" parent="1">
          <mxGeometry x="223.75" y="-450" width="120" height="120" as="geometry" />
        </mxCell>
        <mxCell id="HqMO7V_3ogWAPgEUdEhm-14" value="" style="ellipse;whiteSpace=wrap;html=1;aspect=fixed;" vertex="1" parent="1">
          <mxGeometry x="241.25" y="-432.5" width="85" height="85" as="geometry" />
        </mxCell>
        <mxCell id="HqMO7V_3ogWAPgEUdEhm-15" value="" style="ellipse;whiteSpace=wrap;html=1;aspect=fixed;" vertex="1" parent="1">
          <mxGeometry x="273.75" y="-452.5" width="20" height="20" as="geometry" />
        </mxCell>
        <mxCell id="HqMO7V_3ogWAPgEUdEhm-17" value="" style="ellipse;whiteSpace=wrap;html=1;aspect=fixed;" vertex="1" parent="1">
          <mxGeometry x="253.75" y="-450" width="20" height="20" as="geometry" />
        </mxCell>
        <mxCell id="HqMO7V_3ogWAPgEUdEhm-18" value="" style="ellipse;whiteSpace=wrap;html=1;aspect=fixed;" vertex="1" parent="1">
          <mxGeometry x="233.75" y="-432.5" width="20" height="20" as="geometry" />
        </mxCell>
        <mxCell id="HqMO7V_3ogWAPgEUdEhm-21" value="" style="ellipse;whiteSpace=wrap;html=1;aspect=fixed;" vertex="1" parent="1">
          <mxGeometry x="293.75" y="-450" width="20" height="20" as="geometry" />
        </mxCell>
        <mxCell id="HqMO7V_3ogWAPgEUdEhm-22" value="" style="ellipse;whiteSpace=wrap;html=1;aspect=fixed;" vertex="1" parent="1">
          <mxGeometry x="313.75" y="-430" width="20" height="20" as="geometry" />
        </mxCell>
        <mxCell id="HqMO7V_3ogWAPgEUdEhm-23" value="" style="ellipse;whiteSpace=wrap;html=1;aspect=fixed;" vertex="1" parent="1">
          <mxGeometry x="273.75" y="-350" width="20" height="20" as="geometry" />
        </mxCell>
        <mxCell id="HqMO7V_3ogWAPgEUdEhm-24" value="" style="ellipse;whiteSpace=wrap;html=1;aspect=fixed;" vertex="1" parent="1">
          <mxGeometry x="326.25" y="-400" width="20" height="20" as="geometry" />
        </mxCell>
        <mxCell id="HqMO7V_3ogWAPgEUdEhm-25" value="" style="ellipse;whiteSpace=wrap;html=1;aspect=fixed;" vertex="1" parent="1">
          <mxGeometry x="233.75" y="-370" width="20" height="20" as="geometry" />
        </mxCell>
        <mxCell id="HqMO7V_3ogWAPgEUdEhm-26" value="" style="ellipse;whiteSpace=wrap;html=1;aspect=fixed;" vertex="1" parent="1">
          <mxGeometry x="293.75" y="-350" width="20" height="20" as="geometry" />
        </mxCell>
        <mxCell id="HqMO7V_3ogWAPgEUdEhm-27" value="" style="ellipse;whiteSpace=wrap;html=1;aspect=fixed;" vertex="1" parent="1">
          <mxGeometry x="253.75" y="-350" width="20" height="20" as="geometry" />
        </mxCell>
        <mxCell id="HqMO7V_3ogWAPgEUdEhm-28" value="" style="ellipse;whiteSpace=wrap;html=1;aspect=fixed;" vertex="1" parent="1">
          <mxGeometry x="221.25" y="-400" width="20" height="20" as="geometry" />
        </mxCell>
        <mxCell id="HqMO7V_3ogWAPgEUdEhm-29" value="" style="ellipse;whiteSpace=wrap;html=1;aspect=fixed;" vertex="1" parent="1">
          <mxGeometry x="313.75" y="-367.5" width="20" height="20" as="geometry" />
        </mxCell>
        <mxCell id="HqMO7V_3ogWAPgEUdEhm-30" value="" style="verticalLabelPosition=bottom;shadow=0;dashed=0;align=center;html=1;verticalAlign=top;shape=mxgraph.electrical.transistors.n-channel_jfet_1;" vertex="1" parent="1">
          <mxGeometry x="146.25" y="-252.5" width="95" height="100" as="geometry" />
        </mxCell>
        <mxCell id="HqMO7V_3ogWAPgEUdEhm-31" value="" style="pointerEvents=1;verticalLabelPosition=bottom;shadow=0;dashed=0;align=center;html=1;verticalAlign=top;shape=mxgraph.electrical.resistors.resistor_1;" vertex="1" parent="1">
          <mxGeometry x="320" y="-140" width="100" height="20" as="geometry" />
        </mxCell>
        <mxCell id="HqMO7V_3ogWAPgEUdEhm-32" value="" style="pointerEvents=1;verticalLabelPosition=bottom;shadow=0;dashed=0;align=center;html=1;verticalAlign=top;shape=mxgraph.electrical.resistors.resistor_1;" vertex="1" parent="1">
          <mxGeometry x="711.25" y="-300" width="100" height="20" as="geometry" />
        </mxCell>
        <mxCell id="HqMO7V_3ogWAPgEUdEhm-34" value="Effektmodstand&lt;div&gt;100ohm 10W&lt;/div&gt;&lt;div&gt;5%&lt;/div&gt;" style="text;html=1;align=center;verticalAlign=middle;resizable=0;points=[];autosize=1;strokeColor=none;fillColor=none;" vertex="1" parent="1">
          <mxGeometry x="300" y="-200" width="110" height="60" as="geometry" />
        </mxCell>
        <mxCell id="HqMO7V_3ogWAPgEUdEhm-35" value="Effektmodstand&lt;div&gt;100ohm 10W&lt;/div&gt;&lt;div&gt;5%&lt;/div&gt;" style="text;html=1;align=center;verticalAlign=middle;resizable=0;points=[];autosize=1;strokeColor=none;fillColor=none;" vertex="1" parent="1">
          <mxGeometry x="701.25" y="-360" width="110" height="60" as="geometry" />
        </mxCell>
        <mxCell id="HqMO7V_3ogWAPgEUdEhm-36" value="NeoPixel ring&lt;div&gt;5V GND DI&lt;/div&gt;" style="text;html=1;align=center;verticalAlign=middle;resizable=0;points=[];autosize=1;strokeColor=none;fillColor=none;" vertex="1" parent="1">
          <mxGeometry x="233.75" y="-515" width="90" height="40" as="geometry" />
        </mxCell>
        <mxCell id="HqMO7V_3ogWAPgEUdEhm-38" value="" style="verticalLabelPosition=bottom;shadow=0;dashed=0;align=center;fillColor=strokeColor;html=1;verticalAlign=top;strokeWidth=1;shape=mxgraph.electrical.miscellaneous.monocell_battery;" vertex="1" parent="1">
          <mxGeometry x="-270" y="-330" width="100" height="60" as="geometry" />
        </mxCell>
        <mxCell id="HqMO7V_3ogWAPgEUdEhm-39" value="" style="verticalLabelPosition=bottom;shadow=0;dashed=0;align=center;fillColor=strokeColor;html=1;verticalAlign=top;strokeWidth=1;shape=mxgraph.electrical.miscellaneous.monocell_battery;" vertex="1" parent="1">
          <mxGeometry x="-200" y="-330" width="100" height="60" as="geometry" />
        </mxCell>
        <mxCell id="HqMO7V_3ogWAPgEUdEhm-40" value="" style="rounded=0;whiteSpace=wrap;html=1;" vertex="1" parent="1">
          <mxGeometry x="-320" y="-200" width="230" height="200" as="geometry" />
        </mxCell>
        <mxCell id="HqMO7V_3ogWAPgEUdEhm-41" value="" style="rounded=0;whiteSpace=wrap;html=1;" vertex="1" parent="1">
          <mxGeometry x="-1040" y="120" width="920" height="480" as="geometry" />
        </mxCell>
        <mxCell id="HqMO7V_3ogWAPgEUdEhm-42" value="19.8k ohm" style="pointerEvents=1;verticalLabelPosition=bottom;shadow=0;dashed=0;align=center;html=1;verticalAlign=top;shape=mxgraph.electrical.resistors.resistor_1;" vertex="1" parent="1">
          <mxGeometry x="-200" y="-107.5" width="80" height="10" as="geometry" />
        </mxCell>
        <mxCell id="HqMO7V_3ogWAPgEUdEhm-44" value="8.12k ohm" style="pointerEvents=1;verticalLabelPosition=bottom;shadow=0;dashed=0;align=center;html=1;verticalAlign=top;shape=mxgraph.electrical.resistors.resistor_1;" vertex="1" parent="1">
          <mxGeometry x="-300" y="-107.5" width="80" height="10" as="geometry" />
        </mxCell>
        <mxCell id="HqMO7V_3ogWAPgEUdEhm-45" value="Batteri&lt;div&gt;3.7V 1800mAh&lt;/div&gt;" style="text;html=1;align=center;verticalAlign=middle;resizable=0;points=[];autosize=1;strokeColor=none;fillColor=none;" vertex="1" parent="1">
          <mxGeometry x="-290" y="-370" width="100" height="40" as="geometry" />
        </mxCell>
        <mxCell id="HqMO7V_3ogWAPgEUdEhm-46" value="Batteri&lt;div&gt;3.7V 1800mAh&lt;/div&gt;" style="text;html=1;align=center;verticalAlign=middle;resizable=0;points=[];autosize=1;strokeColor=none;fillColor=none;" vertex="1" parent="1">
          <mxGeometry x="-190" y="-370" width="100" height="40" as="geometry" />
        </mxCell>
        <mxCell id="HqMO7V_3ogWAPgEUdEhm-47" value="" style="whiteSpace=wrap;html=1;rotation=90;fillColor=#ffe6cc;strokeColor=#d79b00;" vertex="1" parent="1">
          <mxGeometry x="-722.5" y="167.5" width="245" height="160" as="geometry" />
        </mxCell>
        <mxCell id="HqMO7V_3ogWAPgEUdEhm-48" value="&lt;div&gt;GND&lt;/div&gt;&lt;div&gt;&lt;br&gt;&lt;/div&gt;36&lt;div&gt;&lt;br&gt;&lt;/div&gt;&lt;div&gt;&lt;br&gt;&lt;/div&gt;&lt;div&gt;&lt;br&gt;&lt;/div&gt;&lt;div&gt;&lt;br&gt;&lt;/div&gt;&lt;div&gt;26&lt;/div&gt;" style="text;html=1;align=center;verticalAlign=middle;resizable=0;points=[];autosize=1;strokeColor=none;fillColor=none;rotation=0;" vertex="1" parent="1">
          <mxGeometry x="-575" y="195" width="50" height="130" as="geometry" />
        </mxCell>
        <mxCell id="HqMO7V_3ogWAPgEUdEhm-49" value="2&lt;div&gt;&lt;br&gt;&lt;/div&gt;&lt;div&gt;4&lt;/div&gt;&lt;div&gt;&lt;br&gt;&lt;/div&gt;" style="text;html=1;align=center;verticalAlign=middle;resizable=0;points=[];autosize=1;strokeColor=none;fillColor=none;rotation=0;" vertex="1" parent="1">
          <mxGeometry x="-670" y="225" width="30" height="70" as="geometry" />
        </mxCell>
        <mxCell id="HqMO7V_3ogWAPgEUdEhm-51" value="LCD display" style="rounded=0;whiteSpace=wrap;html=1;" vertex="1" parent="1">
          <mxGeometry x="-350" y="150" width="180" height="420" as="geometry" />
        </mxCell>
        <mxCell id="HqMO7V_3ogWAPgEUdEhm-52" value="" style="sketch=0;outlineConnect=0;fontColor=#232F3E;gradientColor=none;fillColor=#7AA116;strokeColor=none;dashed=0;verticalLabelPosition=bottom;verticalAlign=top;align=center;html=1;fontSize=12;fontStyle=0;aspect=fixed;pointerEvents=1;shape=mxgraph.aws4.iot_thing_temperature_sensor;" vertex="1" parent="1">
          <mxGeometry x="-790" y="400" width="78" height="78" as="geometry" />
        </mxCell>
        <mxCell id="HqMO7V_3ogWAPgEUdEhm-50" value="&lt;span style=&quot;text-wrap-mode: wrap;&quot;&gt;esp32-wroom-32d&lt;/span&gt;" style="text;html=1;align=center;verticalAlign=middle;resizable=0;points=[];autosize=1;strokeColor=none;fillColor=none;" vertex="1" parent="1">
          <mxGeometry x="-660" y="240" width="120" height="30" as="geometry" />
        </mxCell>
        <mxCell id="HqMO7V_3ogWAPgEUdEhm-55" value="LMT87" style="text;html=1;align=center;verticalAlign=middle;resizable=0;points=[];autosize=1;strokeColor=none;fillColor=none;" vertex="1" parent="1">
          <mxGeometry x="-722.5" y="390" width="60" height="30" as="geometry" />
        </mxCell>
        <mxCell id="HqMO7V_3ogWAPgEUdEhm-56" value="" style="endArrow=none;html=1;rounded=0;entryX=0.75;entryY=0;entryDx=0;entryDy=0;exitX=1;exitY=0.5;exitDx=0;exitDy=0;exitPerimeter=0;" edge="1" parent="1" source="HqMO7V_3ogWAPgEUdEhm-39" target="HqMO7V_3ogWAPgEUdEhm-12">
          <mxGeometry width="50" height="50" relative="1" as="geometry">
            <mxPoint x="20" y="-110" as="sourcePoint" />
            <mxPoint x="60" y="240" as="targetPoint" />
            <Array as="points">
              <mxPoint x="70" y="-300" />
            </Array>
          </mxGeometry>
        </mxCell>
        <mxCell id="HqMO7V_3ogWAPgEUdEhm-57" value="" style="endArrow=none;html=1;rounded=0;exitX=0.25;exitY=0;exitDx=0;exitDy=0;entryX=1;entryY=0.5;entryDx=0;entryDy=0;" edge="1" parent="1" source="HqMO7V_3ogWAPgEUdEhm-12" target="HqMO7V_3ogWAPgEUdEhm-60">
          <mxGeometry width="50" height="50" relative="1" as="geometry">
            <mxPoint x="10" y="60" as="sourcePoint" />
            <mxPoint x="30" y="-210" as="targetPoint" />
            <Array as="points">
              <mxPoint x="30" y="-142" />
            </Array>
          </mxGeometry>
        </mxCell>
        <mxCell id="HqMO7V_3ogWAPgEUdEhm-58" value="" style="whiteSpace=wrap;html=1;aspect=fixed;" vertex="1" parent="1">
          <mxGeometry x="-120" y="-112.5" width="20" height="20" as="geometry" />
        </mxCell>
        <mxCell id="HqMO7V_3ogWAPgEUdEhm-59" value="" style="whiteSpace=wrap;html=1;aspect=fixed;" vertex="1" parent="1">
          <mxGeometry x="-120" y="-132.5" width="20" height="20" as="geometry" />
        </mxCell>
        <mxCell id="HqMO7V_3ogWAPgEUdEhm-60" value="" style="whiteSpace=wrap;html=1;aspect=fixed;" vertex="1" parent="1">
          <mxGeometry x="-120" y="-152.5" width="20" height="20" as="geometry" />
        </mxCell>
        <mxCell id="HqMO7V_3ogWAPgEUdEhm-61" value="" style="whiteSpace=wrap;html=1;aspect=fixed;" vertex="1" parent="1">
          <mxGeometry x="-220" y="-110" width="20" height="20" as="geometry" />
        </mxCell>
        <mxCell id="HqMO7V_3ogWAPgEUdEhm-62" value="" style="whiteSpace=wrap;html=1;aspect=fixed;" vertex="1" parent="1">
          <mxGeometry x="-310" y="-112.5" width="20" height="20" as="geometry" />
        </mxCell>
        <mxCell id="HqMO7V_3ogWAPgEUdEhm-63" value="" style="whiteSpace=wrap;html=1;aspect=fixed;" vertex="1" parent="1">
          <mxGeometry x="-310" y="-132.5" width="20" height="20" as="geometry" />
        </mxCell>
        <mxCell id="HqMO7V_3ogWAPgEUdEhm-64" value="" style="whiteSpace=wrap;html=1;aspect=fixed;" vertex="1" parent="1">
          <mxGeometry x="-310" y="-152.5" width="20" height="20" as="geometry" />
        </mxCell>
        <mxCell id="HqMO7V_3ogWAPgEUdEhm-65" value="" style="endArrow=none;html=1;rounded=0;entryX=0;entryY=0.5;entryDx=0;entryDy=0;entryPerimeter=0;exitX=0;exitY=0.5;exitDx=0;exitDy=0;" edge="1" parent="1" source="HqMO7V_3ogWAPgEUdEhm-64" target="HqMO7V_3ogWAPgEUdEhm-38">
          <mxGeometry width="50" height="50" relative="1" as="geometry">
            <mxPoint x="-370" y="-120" as="sourcePoint" />
            <mxPoint x="-100" y="-140" as="targetPoint" />
            <Array as="points">
              <mxPoint x="-380" y="-142" />
              <mxPoint x="-380" y="-300" />
            </Array>
          </mxGeometry>
        </mxCell>
        <mxCell id="HqMO7V_3ogWAPgEUdEhm-66" value="" style="endArrow=none;html=1;rounded=0;entryX=0.5;entryY=1;entryDx=0;entryDy=0;" edge="1" parent="1" target="HqMO7V_3ogWAPgEUdEhm-61">
          <mxGeometry width="50" height="50" relative="1" as="geometry">
            <mxPoint x="-210" y="40" as="sourcePoint" />
            <mxPoint x="-110" y="-40" as="targetPoint" />
          </mxGeometry>
        </mxCell>
        <mxCell id="HqMO7V_3ogWAPgEUdEhm-67" value="" style="endArrow=none;html=1;rounded=0;entryX=1;entryY=0.5;entryDx=0;entryDy=0;exitX=0.7;exitY=0;exitDx=0;exitDy=0;exitPerimeter=0;" edge="1" parent="1" source="HqMO7V_3ogWAPgEUdEhm-30" target="HqMO7V_3ogWAPgEUdEhm-59">
          <mxGeometry width="50" height="50" relative="1" as="geometry">
            <mxPoint x="560" y="-122" as="sourcePoint" />
            <mxPoint x="-110" y="-40" as="targetPoint" />
            <Array as="points">
              <mxPoint x="212" y="-280" />
              <mxPoint x="-20" y="-280" />
              <mxPoint x="-20" y="-122" />
            </Array>
          </mxGeometry>
        </mxCell>
        <mxCell id="HqMO7V_3ogWAPgEUdEhm-68" value="" style="endArrow=none;html=1;rounded=0;exitX=1;exitY=0.5;exitDx=0;exitDy=0;entryX=0.75;entryY=0;entryDx=0;entryDy=0;" edge="1" parent="1" source="HqMO7V_3ogWAPgEUdEhm-58" target="HqMO7V_3ogWAPgEUdEhm-76">
          <mxGeometry width="50" height="50" relative="1" as="geometry">
            <mxPoint x="-160" y="10" as="sourcePoint" />
            <mxPoint x="-360" y="80" as="targetPoint" />
            <Array as="points">
              <mxPoint x="-20" y="-102" />
              <mxPoint x="-20" y="80" />
              <mxPoint x="-382" y="80" />
            </Array>
          </mxGeometry>
        </mxCell>
        <mxCell id="HqMO7V_3ogWAPgEUdEhm-71" value="" style="endArrow=none;html=1;rounded=0;entryX=0;entryY=0.5;entryDx=0;entryDy=0;exitX=0.25;exitY=0;exitDx=0;exitDy=0;" edge="1" parent="1" source="HqMO7V_3ogWAPgEUdEhm-76" target="HqMO7V_3ogWAPgEUdEhm-62">
          <mxGeometry width="50" height="50" relative="1" as="geometry">
            <mxPoint x="-390" y="80" as="sourcePoint" />
            <mxPoint x="-230" y="-190" as="targetPoint" />
            <Array as="points">
              <mxPoint x="-407" y="-102" />
            </Array>
          </mxGeometry>
        </mxCell>
        <mxCell id="HqMO7V_3ogWAPgEUdEhm-72" value="" style="endArrow=none;html=1;rounded=0;entryX=0;entryY=0.5;entryDx=0;entryDy=0;exitX=1.023;exitY=0.138;exitDx=0;exitDy=0;exitPerimeter=0;" edge="1" parent="1" source="HqMO7V_3ogWAPgEUdEhm-48" target="HqMO7V_3ogWAPgEUdEhm-63">
          <mxGeometry width="50" height="50" relative="1" as="geometry">
            <mxPoint x="-460" y="-122" as="sourcePoint" />
            <mxPoint x="-230" y="-190" as="targetPoint" />
            <Array as="points">
              <mxPoint x="-460" y="213" />
              <mxPoint x="-460" y="-122" />
            </Array>
          </mxGeometry>
        </mxCell>
        <mxCell id="HqMO7V_3ogWAPgEUdEhm-75" value="" style="endArrow=none;html=1;rounded=0;entryX=0.7;entryY=1;entryDx=0;entryDy=0;entryPerimeter=0;exitX=0;exitY=0.5;exitDx=0;exitDy=0;exitPerimeter=0;" edge="1" parent="1" source="HqMO7V_3ogWAPgEUdEhm-31" target="HqMO7V_3ogWAPgEUdEhm-30">
          <mxGeometry width="50" height="50" relative="1" as="geometry">
            <mxPoint x="320" y="-152" as="sourcePoint" />
            <mxPoint x="140" y="-190" as="targetPoint" />
            <Array as="points">
              <mxPoint x="210" y="-130" />
            </Array>
          </mxGeometry>
        </mxCell>
        <mxCell id="HqMO7V_3ogWAPgEUdEhm-76" value="DC-044A" style="whiteSpace=wrap;html=1;aspect=fixed;" vertex="1" parent="1">
          <mxGeometry x="-420" y="130" width="50" height="50" as="geometry" />
        </mxCell>
      </root>
    </mxGraphModel>
  </diagram>
</mxfile>
